<mxfile host="app.diagrams.net" modified="2023-03-28T11:05:06.070Z" agent="Mozilla/5.0 (Windows NT 10.0; Win64; x64) AppleWebKit/537.36 (KHTML, like Gecko) Chrome/111.0.0.0 Safari/537.36" etag="h4xwWUBfFkGjauQIIUvZ" version="21.1.1" type="device">
  <diagram name="Page-1" id="bZ3-UlI_hQohyZicIiZp">
    <mxGraphModel dx="167" dy="1460" grid="1" gridSize="10" guides="1" tooltips="1" connect="1" arrows="1" fold="1" page="1" pageScale="1" pageWidth="827" pageHeight="1169" math="0" shadow="0">
      <root>
        <mxCell id="0" />
        <mxCell id="1" parent="0" />
        <mxCell id="lhGBUYHMl0y7ZSXnE7WN-14" style="edgeStyle=orthogonalEdgeStyle;rounded=0;orthogonalLoop=1;jettySize=auto;html=1;entryX=0.5;entryY=0;entryDx=0;entryDy=0;" edge="1" parent="1" source="tzjIKLnI3NLbFgxXQfzE-2" target="tzjIKLnI3NLbFgxXQfzE-4">
          <mxGeometry relative="1" as="geometry">
            <mxPoint x="580" y="20" as="targetPoint" />
            <Array as="points">
              <mxPoint x="140" y="-80" />
            </Array>
          </mxGeometry>
        </mxCell>
        <mxCell id="lhGBUYHMl0y7ZSXnE7WN-15" style="edgeStyle=orthogonalEdgeStyle;rounded=0;orthogonalLoop=1;jettySize=auto;html=1;entryX=0.5;entryY=0;entryDx=0;entryDy=0;" edge="1" parent="1" source="tzjIKLnI3NLbFgxXQfzE-2" target="tzjIKLnI3NLbFgxXQfzE-5">
          <mxGeometry relative="1" as="geometry">
            <Array as="points">
              <mxPoint x="290" y="-40" />
            </Array>
          </mxGeometry>
        </mxCell>
        <mxCell id="lhGBUYHMl0y7ZSXnE7WN-16" style="edgeStyle=orthogonalEdgeStyle;rounded=0;orthogonalLoop=1;jettySize=auto;html=1;entryX=0.5;entryY=0;entryDx=0;entryDy=0;" edge="1" parent="1" source="tzjIKLnI3NLbFgxXQfzE-2" target="tzjIKLnI3NLbFgxXQfzE-7">
          <mxGeometry relative="1" as="geometry">
            <Array as="points">
              <mxPoint x="590" y="20" />
              <mxPoint x="440" y="20" />
            </Array>
          </mxGeometry>
        </mxCell>
        <mxCell id="lhGBUYHMl0y7ZSXnE7WN-17" style="edgeStyle=orthogonalEdgeStyle;rounded=0;orthogonalLoop=1;jettySize=auto;html=1;entryX=0.5;entryY=0;entryDx=0;entryDy=0;" edge="1" parent="1" source="tzjIKLnI3NLbFgxXQfzE-2" target="tzjIKLnI3NLbFgxXQfzE-9">
          <mxGeometry relative="1" as="geometry">
            <Array as="points">
              <mxPoint x="620" y="80" />
              <mxPoint x="590" y="80" />
            </Array>
          </mxGeometry>
        </mxCell>
        <mxCell id="lhGBUYHMl0y7ZSXnE7WN-18" style="edgeStyle=orthogonalEdgeStyle;rounded=0;orthogonalLoop=1;jettySize=auto;html=1;entryX=0.5;entryY=0;entryDx=0;entryDy=0;" edge="1" parent="1" source="tzjIKLnI3NLbFgxXQfzE-2" target="tzjIKLnI3NLbFgxXQfzE-11">
          <mxGeometry relative="1" as="geometry">
            <Array as="points">
              <mxPoint x="640" y="115" />
              <mxPoint x="740" y="115" />
            </Array>
          </mxGeometry>
        </mxCell>
        <mxCell id="lhGBUYHMl0y7ZSXnE7WN-19" style="edgeStyle=orthogonalEdgeStyle;rounded=0;orthogonalLoop=1;jettySize=auto;html=1;" edge="1" parent="1" source="tzjIKLnI3NLbFgxXQfzE-2">
          <mxGeometry relative="1" as="geometry">
            <mxPoint x="880" y="260" as="targetPoint" />
            <Array as="points">
              <mxPoint x="660" y="70" />
              <mxPoint x="880" y="70" />
            </Array>
          </mxGeometry>
        </mxCell>
        <mxCell id="lhGBUYHMl0y7ZSXnE7WN-20" style="edgeStyle=orthogonalEdgeStyle;rounded=0;orthogonalLoop=1;jettySize=auto;html=1;entryX=0.5;entryY=0;entryDx=0;entryDy=0;" edge="1" parent="1" source="tzjIKLnI3NLbFgxXQfzE-2" target="tzjIKLnI3NLbFgxXQfzE-23">
          <mxGeometry relative="1" as="geometry">
            <mxPoint x="940" y="80" as="targetPoint" />
            <Array as="points">
              <mxPoint x="690" y="30" />
              <mxPoint x="1040" y="30" />
            </Array>
          </mxGeometry>
        </mxCell>
        <mxCell id="lhGBUYHMl0y7ZSXnE7WN-22" style="edgeStyle=orthogonalEdgeStyle;rounded=0;orthogonalLoop=1;jettySize=auto;html=1;entryX=0.5;entryY=0;entryDx=0;entryDy=0;" edge="1" parent="1" source="tzjIKLnI3NLbFgxXQfzE-2" target="tzjIKLnI3NLbFgxXQfzE-26">
          <mxGeometry relative="1" as="geometry">
            <Array as="points">
              <mxPoint x="1190" y="-40" />
            </Array>
          </mxGeometry>
        </mxCell>
        <mxCell id="tzjIKLnI3NLbFgxXQfzE-2" value="AssemblerSimulator" style="rounded=1;whiteSpace=wrap;html=1;arcSize=0;fontSize=12;fontFamily=Verdana;" parent="1" vertex="1">
          <mxGeometry x="570" y="-90" width="130" height="60" as="geometry" />
        </mxCell>
        <mxCell id="tzjIKLnI3NLbFgxXQfzE-4" value="ResetSourceCode" style="rounded=1;whiteSpace=wrap;html=1;arcSize=0;fontSize=12;fontFamily=Verdana;" parent="1" vertex="1">
          <mxGeometry x="80" y="260" width="120" height="60" as="geometry" />
        </mxCell>
        <mxCell id="tzjIKLnI3NLbFgxXQfzE-5" value="ResetMemory" style="rounded=1;whiteSpace=wrap;html=1;arcSize=0;fontSize=12;fontFamily=Verdana;" parent="1" vertex="1">
          <mxGeometry x="230" y="260" width="120" height="60" as="geometry" />
        </mxCell>
        <mxCell id="tzjIKLnI3NLbFgxXQfzE-7" value="DisplayMenu" style="rounded=1;whiteSpace=wrap;html=1;arcSize=0;fontSize=12;fontFamily=Verdana;" parent="1" vertex="1">
          <mxGeometry x="380" y="260" width="120" height="60" as="geometry" />
        </mxCell>
        <mxCell id="tzjIKLnI3NLbFgxXQfzE-9" value="GetMenuOption" style="rounded=1;whiteSpace=wrap;html=1;arcSize=0;fontSize=12;fontFamily=Verdana;" parent="1" vertex="1">
          <mxGeometry x="530" y="260" width="120" height="60" as="geometry" />
        </mxCell>
        <mxCell id="tzjIKLnI3NLbFgxXQfzE-16" style="edgeStyle=orthogonalEdgeStyle;rounded=0;orthogonalLoop=1;jettySize=auto;html=1;entryX=0.5;entryY=1;entryDx=0;entryDy=0;" parent="1" source="tzjIKLnI3NLbFgxXQfzE-11" target="tzjIKLnI3NLbFgxXQfzE-4" edge="1">
          <mxGeometry relative="1" as="geometry">
            <Array as="points">
              <mxPoint x="698" y="370" />
              <mxPoint x="140" y="370" />
            </Array>
          </mxGeometry>
        </mxCell>
        <mxCell id="tzjIKLnI3NLbFgxXQfzE-22" style="edgeStyle=orthogonalEdgeStyle;rounded=0;orthogonalLoop=1;jettySize=auto;html=1;" parent="1" source="tzjIKLnI3NLbFgxXQfzE-11" target="tzjIKLnI3NLbFgxXQfzE-20" edge="1">
          <mxGeometry relative="1" as="geometry">
            <mxPoint x="760" y="420" as="targetPoint" />
            <Array as="points">
              <mxPoint x="740" y="370" />
              <mxPoint x="870" y="370" />
            </Array>
          </mxGeometry>
        </mxCell>
        <mxCell id="tzjIKLnI3NLbFgxXQfzE-11" value="LoadFile" style="rounded=1;whiteSpace=wrap;html=1;arcSize=0;fontSize=12;fontFamily=Verdana;" parent="1" vertex="1">
          <mxGeometry x="680" y="260" width="120" height="60" as="geometry" />
        </mxCell>
        <mxCell id="tzjIKLnI3NLbFgxXQfzE-20" value="DisplaySourceCode" style="rounded=1;whiteSpace=wrap;html=1;arcSize=0;fontSize=12;fontFamily=Verdana;" parent="1" vertex="1">
          <mxGeometry x="827" y="260" width="130" height="60" as="geometry" />
        </mxCell>
        <mxCell id="tzjIKLnI3NLbFgxXQfzE-25" style="edgeStyle=orthogonalEdgeStyle;rounded=0;orthogonalLoop=1;jettySize=auto;html=1;" parent="1" source="tzjIKLnI3NLbFgxXQfzE-23" target="tzjIKLnI3NLbFgxXQfzE-20" edge="1">
          <mxGeometry relative="1" as="geometry">
            <mxPoint x="910" y="330" as="targetPoint" />
            <Array as="points">
              <mxPoint x="1040" y="370" />
              <mxPoint x="920" y="370" />
            </Array>
          </mxGeometry>
        </mxCell>
        <mxCell id="tzjIKLnI3NLbFgxXQfzE-23" value="EditSourceCode" style="rounded=1;whiteSpace=wrap;html=1;arcSize=0;fontSize=12;fontFamily=Verdana;" parent="1" vertex="1">
          <mxGeometry x="980" y="260" width="120" height="60" as="geometry" />
        </mxCell>
        <mxCell id="tzjIKLnI3NLbFgxXQfzE-28" style="edgeStyle=orthogonalEdgeStyle;rounded=0;orthogonalLoop=1;jettySize=auto;html=1;entryX=0.448;entryY=1.015;entryDx=0;entryDy=0;entryPerimeter=0;" parent="1" source="tzjIKLnI3NLbFgxXQfzE-26" target="tzjIKLnI3NLbFgxXQfzE-5" edge="1">
          <mxGeometry relative="1" as="geometry">
            <Array as="points">
              <mxPoint x="1150" y="400" />
              <mxPoint x="284" y="400" />
            </Array>
          </mxGeometry>
        </mxCell>
        <mxCell id="tzjIKLnI3NLbFgxXQfzE-29" style="edgeStyle=orthogonalEdgeStyle;rounded=0;orthogonalLoop=1;jettySize=auto;html=1;entryX=0.5;entryY=0;entryDx=0;entryDy=0;" parent="1" source="tzjIKLnI3NLbFgxXQfzE-26" target="tzjIKLnI3NLbFgxXQfzE-30" edge="1">
          <mxGeometry relative="1" as="geometry">
            <mxPoint x="1210" y="770" as="targetPoint" />
          </mxGeometry>
        </mxCell>
        <mxCell id="tzjIKLnI3NLbFgxXQfzE-42" style="edgeStyle=orthogonalEdgeStyle;rounded=0;orthogonalLoop=1;jettySize=auto;html=1;" parent="1" source="tzjIKLnI3NLbFgxXQfzE-26" target="tzjIKLnI3NLbFgxXQfzE-41" edge="1">
          <mxGeometry relative="1" as="geometry">
            <Array as="points">
              <mxPoint x="1230" y="420" />
              <mxPoint x="1380" y="420" />
            </Array>
          </mxGeometry>
        </mxCell>
        <mxCell id="tzjIKLnI3NLbFgxXQfzE-26" value="Assemble" style="rounded=1;whiteSpace=wrap;html=1;arcSize=0;fontSize=12;fontFamily=Verdana;" parent="1" vertex="1">
          <mxGeometry x="1130" y="260" width="120" height="60" as="geometry" />
        </mxCell>
        <mxCell id="tzjIKLnI3NLbFgxXQfzE-31" style="edgeStyle=orthogonalEdgeStyle;rounded=0;orthogonalLoop=1;jettySize=auto;html=1;" parent="1" source="tzjIKLnI3NLbFgxXQfzE-30" edge="1">
          <mxGeometry relative="1" as="geometry">
            <mxPoint x="980" y="700" as="targetPoint" />
            <Array as="points">
              <mxPoint x="1060" y="610" />
              <mxPoint x="980" y="610" />
            </Array>
          </mxGeometry>
        </mxCell>
        <mxCell id="tzjIKLnI3NLbFgxXQfzE-35" style="edgeStyle=orthogonalEdgeStyle;rounded=0;orthogonalLoop=1;jettySize=auto;html=1;entryX=0.5;entryY=0;entryDx=0;entryDy=0;" parent="1" source="tzjIKLnI3NLbFgxXQfzE-30" target="tzjIKLnI3NLbFgxXQfzE-36" edge="1">
          <mxGeometry relative="1" as="geometry">
            <mxPoint x="1130" y="690" as="targetPoint" />
          </mxGeometry>
        </mxCell>
        <mxCell id="tzjIKLnI3NLbFgxXQfzE-37" style="edgeStyle=orthogonalEdgeStyle;rounded=0;orthogonalLoop=1;jettySize=auto;html=1;entryX=0.403;entryY=-0.017;entryDx=0;entryDy=0;entryPerimeter=0;" parent="1" source="tzjIKLnI3NLbFgxXQfzE-30" target="tzjIKLnI3NLbFgxXQfzE-38" edge="1">
          <mxGeometry relative="1" as="geometry">
            <mxPoint x="1260" y="690" as="targetPoint" />
            <Array as="points">
              <mxPoint x="1140" y="610" />
              <mxPoint x="1258" y="610" />
            </Array>
          </mxGeometry>
        </mxCell>
        <mxCell id="tzjIKLnI3NLbFgxXQfzE-30" value="PassOne" style="rounded=1;whiteSpace=wrap;html=1;arcSize=0;fontSize=12;fontFamily=Verdana;" parent="1" vertex="1">
          <mxGeometry x="1040" y="520" width="120" height="60" as="geometry" />
        </mxCell>
        <mxCell id="tzjIKLnI3NLbFgxXQfzE-33" style="edgeStyle=orthogonalEdgeStyle;rounded=0;orthogonalLoop=1;jettySize=auto;html=1;entryX=0.5;entryY=0;entryDx=0;entryDy=0;" parent="1" source="tzjIKLnI3NLbFgxXQfzE-32" edge="1" target="tzjIKLnI3NLbFgxXQfzE-34">
          <mxGeometry relative="1" as="geometry">
            <mxPoint x="990" y="810" as="targetPoint" />
          </mxGeometry>
        </mxCell>
        <mxCell id="tzjIKLnI3NLbFgxXQfzE-32" value="ExtractLabel" style="rounded=1;whiteSpace=wrap;html=1;arcSize=0;fontSize=12;fontFamily=Verdana;" parent="1" vertex="1">
          <mxGeometry x="930" y="700" width="120" height="60" as="geometry" />
        </mxCell>
        <mxCell id="tzjIKLnI3NLbFgxXQfzE-34" value="UpdateSymbolTable" style="rounded=1;whiteSpace=wrap;html=1;arcSize=0;fontSize=12;fontFamily=Verdana;" parent="1" vertex="1">
          <mxGeometry x="930" y="850" width="120" height="60" as="geometry" />
        </mxCell>
        <mxCell id="tzjIKLnI3NLbFgxXQfzE-36" value="ExtractOpcode" style="rounded=1;whiteSpace=wrap;html=1;arcSize=0;fontSize=12;fontFamily=Verdana;" parent="1" vertex="1">
          <mxGeometry x="1071" y="700" width="120" height="60" as="geometry" />
        </mxCell>
        <mxCell id="tzjIKLnI3NLbFgxXQfzE-38" value="ExtractOperand" style="rounded=1;whiteSpace=wrap;html=1;arcSize=0;fontSize=12;fontFamily=Verdana;" parent="1" vertex="1">
          <mxGeometry x="1210" y="700" width="120" height="60" as="geometry" />
        </mxCell>
        <mxCell id="tzjIKLnI3NLbFgxXQfzE-45" style="edgeStyle=orthogonalEdgeStyle;rounded=0;orthogonalLoop=1;jettySize=auto;html=1;entryX=0.5;entryY=0;entryDx=0;entryDy=0;" parent="1" source="tzjIKLnI3NLbFgxXQfzE-39" target="tzjIKLnI3NLbFgxXQfzE-44" edge="1">
          <mxGeometry relative="1" as="geometry" />
        </mxCell>
        <mxCell id="tzjIKLnI3NLbFgxXQfzE-49" style="edgeStyle=orthogonalEdgeStyle;rounded=0;orthogonalLoop=1;jettySize=auto;html=1;entryX=0.5;entryY=0;entryDx=0;entryDy=0;exitX=0;exitY=0.75;exitDx=0;exitDy=0;" parent="1" source="tzjIKLnI3NLbFgxXQfzE-39" target="tzjIKLnI3NLbFgxXQfzE-48" edge="1">
          <mxGeometry relative="1" as="geometry">
            <mxPoint x="2450" y="-680" as="sourcePoint" />
            <Array as="points">
              <mxPoint x="2480" y="-690" />
              <mxPoint x="2335" y="-690" />
              <mxPoint x="2335" y="-670" />
              <mxPoint x="2145" y="-670" />
            </Array>
          </mxGeometry>
        </mxCell>
        <mxCell id="tzjIKLnI3NLbFgxXQfzE-51" style="edgeStyle=orthogonalEdgeStyle;rounded=0;orthogonalLoop=1;jettySize=auto;html=1;entryX=0.5;entryY=0;entryDx=0;entryDy=0;" parent="1" source="tzjIKLnI3NLbFgxXQfzE-39" target="tzjIKLnI3NLbFgxXQfzE-50" edge="1">
          <mxGeometry relative="1" as="geometry">
            <Array as="points">
              <mxPoint x="2490" y="-660" />
              <mxPoint x="2345" y="-660" />
            </Array>
          </mxGeometry>
        </mxCell>
        <mxCell id="tzjIKLnI3NLbFgxXQfzE-64" style="edgeStyle=orthogonalEdgeStyle;rounded=0;orthogonalLoop=1;jettySize=auto;html=1;entryX=0.251;entryY=-0.017;entryDx=0;entryDy=0;entryPerimeter=0;" parent="1" source="tzjIKLnI3NLbFgxXQfzE-39" target="tzjIKLnI3NLbFgxXQfzE-63" edge="1">
          <mxGeometry relative="1" as="geometry">
            <mxPoint x="2510" y="-621" as="targetPoint" />
            <Array as="points">
              <mxPoint x="2540" y="-650" />
              <mxPoint x="2510" y="-650" />
            </Array>
          </mxGeometry>
        </mxCell>
        <mxCell id="tzjIKLnI3NLbFgxXQfzE-67" style="edgeStyle=orthogonalEdgeStyle;rounded=0;orthogonalLoop=1;jettySize=auto;html=1;" parent="1" source="tzjIKLnI3NLbFgxXQfzE-39" target="tzjIKLnI3NLbFgxXQfzE-66" edge="1">
          <mxGeometry relative="1" as="geometry">
            <Array as="points">
              <mxPoint x="2580" y="-660" />
              <mxPoint x="2700" y="-660" />
            </Array>
          </mxGeometry>
        </mxCell>
        <mxCell id="tzjIKLnI3NLbFgxXQfzE-69" style="edgeStyle=orthogonalEdgeStyle;rounded=0;orthogonalLoop=1;jettySize=auto;html=1;" parent="1" source="tzjIKLnI3NLbFgxXQfzE-39" target="tzjIKLnI3NLbFgxXQfzE-68" edge="1">
          <mxGeometry relative="1" as="geometry">
            <Array as="points">
              <mxPoint x="2830" y="-680" />
            </Array>
          </mxGeometry>
        </mxCell>
        <mxCell id="tzjIKLnI3NLbFgxXQfzE-73" style="edgeStyle=orthogonalEdgeStyle;rounded=0;orthogonalLoop=1;jettySize=auto;html=1;entryX=0.25;entryY=0;entryDx=0;entryDy=0;" parent="1" source="tzjIKLnI3NLbFgxXQfzE-39" target="tzjIKLnI3NLbFgxXQfzE-72" edge="1">
          <mxGeometry relative="1" as="geometry">
            <Array as="points">
              <mxPoint x="2990" y="-690" />
            </Array>
          </mxGeometry>
        </mxCell>
        <mxCell id="lhGBUYHMl0y7ZSXnE7WN-4" style="edgeStyle=orthogonalEdgeStyle;rounded=0;orthogonalLoop=1;jettySize=auto;html=1;entryX=0.597;entryY=0.005;entryDx=0;entryDy=0;entryPerimeter=0;" edge="1" parent="1" source="tzjIKLnI3NLbFgxXQfzE-39" target="lhGBUYHMl0y7ZSXnE7WN-3">
          <mxGeometry relative="1" as="geometry">
            <mxPoint x="3193.076923076923" y="-710" as="targetPoint" />
            <Array as="points">
              <mxPoint x="3192" y="-700" />
            </Array>
          </mxGeometry>
        </mxCell>
        <mxCell id="lhGBUYHMl0y7ZSXnE7WN-7" style="edgeStyle=orthogonalEdgeStyle;rounded=0;orthogonalLoop=1;jettySize=auto;html=1;entryX=0.5;entryY=0;entryDx=0;entryDy=0;" edge="1" parent="1" source="tzjIKLnI3NLbFgxXQfzE-39" target="lhGBUYHMl0y7ZSXnE7WN-5">
          <mxGeometry relative="1" as="geometry">
            <mxPoint x="3349.4871794871797" y="-690" as="targetPoint" />
            <Array as="points">
              <mxPoint x="3340" y="-710" />
            </Array>
          </mxGeometry>
        </mxCell>
        <mxCell id="lhGBUYHMl0y7ZSXnE7WN-12" style="edgeStyle=orthogonalEdgeStyle;rounded=0;orthogonalLoop=1;jettySize=auto;html=1;" edge="1" parent="1" source="tzjIKLnI3NLbFgxXQfzE-39">
          <mxGeometry relative="1" as="geometry">
            <mxPoint x="3480" y="-620" as="targetPoint" />
            <Array as="points">
              <mxPoint x="3480" y="-720" />
              <mxPoint x="3480" y="-620" />
            </Array>
          </mxGeometry>
        </mxCell>
        <mxCell id="tzjIKLnI3NLbFgxXQfzE-39" value="Execute" style="rounded=1;whiteSpace=wrap;html=1;arcSize=0;fontSize=12;fontFamily=Verdana;spacingTop=-1;" parent="1" vertex="1">
          <mxGeometry x="2730" y="-980" width="120" height="60" as="geometry" />
        </mxCell>
        <mxCell id="tzjIKLnI3NLbFgxXQfzE-41" value="PassTwo" style="rounded=1;whiteSpace=wrap;html=1;arcSize=0;fontSize=12;fontFamily=Verdana;" parent="1" vertex="1">
          <mxGeometry x="1320" y="520" width="120" height="60" as="geometry" />
        </mxCell>
        <mxCell id="tzjIKLnI3NLbFgxXQfzE-47" style="edgeStyle=orthogonalEdgeStyle;rounded=0;orthogonalLoop=1;jettySize=auto;html=1;entryX=0.5;entryY=0;entryDx=0;entryDy=0;" parent="1" source="tzjIKLnI3NLbFgxXQfzE-44" target="tzjIKLnI3NLbFgxXQfzE-46" edge="1">
          <mxGeometry relative="1" as="geometry" />
        </mxCell>
        <mxCell id="tzjIKLnI3NLbFgxXQfzE-44" value="SetFlags" style="rounded=1;whiteSpace=wrap;html=1;arcSize=0;fontSize=12;fontFamily=Verdana;spacingTop=-1;" parent="1" vertex="1">
          <mxGeometry x="1920" y="-690" width="120" height="60" as="geometry" />
        </mxCell>
        <mxCell id="tzjIKLnI3NLbFgxXQfzE-46" value="ConvertToDecimal" style="rounded=1;whiteSpace=wrap;html=1;arcSize=0;fontSize=12;fontFamily=Verdana;spacingTop=-1;" parent="1" vertex="1">
          <mxGeometry x="1920" y="-560" width="120" height="60" as="geometry" />
        </mxCell>
        <mxCell id="tzjIKLnI3NLbFgxXQfzE-48" value="DisplayFrameDelimiter" style="rounded=1;whiteSpace=wrap;html=1;arcSize=0;fontSize=12;fontFamily=Verdana;spacingTop=-1;" parent="1" vertex="1">
          <mxGeometry x="2070" y="-650" width="150" height="60" as="geometry" />
        </mxCell>
        <mxCell id="tzjIKLnI3NLbFgxXQfzE-58" style="edgeStyle=orthogonalEdgeStyle;rounded=0;orthogonalLoop=1;jettySize=auto;html=1;" parent="1" source="tzjIKLnI3NLbFgxXQfzE-50" target="tzjIKLnI3NLbFgxXQfzE-52" edge="1">
          <mxGeometry relative="1" as="geometry">
            <Array as="points">
              <mxPoint x="2400" y="-550" />
              <mxPoint x="2400" y="-550" />
            </Array>
          </mxGeometry>
        </mxCell>
        <mxCell id="tzjIKLnI3NLbFgxXQfzE-59" style="edgeStyle=orthogonalEdgeStyle;rounded=0;orthogonalLoop=1;jettySize=auto;html=1;entryX=0.75;entryY=1;entryDx=0;entryDy=0;" parent="1" source="tzjIKLnI3NLbFgxXQfzE-50" target="tzjIKLnI3NLbFgxXQfzE-48" edge="1">
          <mxGeometry relative="1" as="geometry" />
        </mxCell>
        <mxCell id="tzjIKLnI3NLbFgxXQfzE-62" style="edgeStyle=orthogonalEdgeStyle;rounded=0;orthogonalLoop=1;jettySize=auto;html=1;entryX=1;entryY=0.5;entryDx=0;entryDy=0;" parent="1" source="tzjIKLnI3NLbFgxXQfzE-50" target="tzjIKLnI3NLbFgxXQfzE-61" edge="1">
          <mxGeometry relative="1" as="geometry">
            <Array as="points">
              <mxPoint x="2310" y="-530" />
              <mxPoint x="2240" y="-530" />
              <mxPoint x="2240" y="-460" />
            </Array>
          </mxGeometry>
        </mxCell>
        <mxCell id="tzjIKLnI3NLbFgxXQfzE-50" value="DisplayCurrentState" style="rounded=1;whiteSpace=wrap;html=1;arcSize=0;fontSize=12;fontFamily=Verdana;spacingTop=-1;" parent="1" vertex="1">
          <mxGeometry x="2270" y="-620" width="150" height="60" as="geometry" />
        </mxCell>
        <mxCell id="tzjIKLnI3NLbFgxXQfzE-55" style="edgeStyle=orthogonalEdgeStyle;rounded=0;orthogonalLoop=1;jettySize=auto;html=1;entryX=0.75;entryY=0;entryDx=0;entryDy=0;" parent="1" source="tzjIKLnI3NLbFgxXQfzE-52" target="tzjIKLnI3NLbFgxXQfzE-54" edge="1">
          <mxGeometry relative="1" as="geometry">
            <Array as="points">
              <mxPoint x="2350" y="-415" />
              <mxPoint x="2300" y="-415" />
            </Array>
          </mxGeometry>
        </mxCell>
        <mxCell id="tzjIKLnI3NLbFgxXQfzE-57" style="edgeStyle=orthogonalEdgeStyle;rounded=0;orthogonalLoop=1;jettySize=auto;html=1;" parent="1" source="tzjIKLnI3NLbFgxXQfzE-52" target="tzjIKLnI3NLbFgxXQfzE-56" edge="1">
          <mxGeometry relative="1" as="geometry" />
        </mxCell>
        <mxCell id="tzjIKLnI3NLbFgxXQfzE-52" value="DisplayCode" style="rounded=1;whiteSpace=wrap;html=1;arcSize=0;fontSize=12;fontFamily=Verdana;spacingTop=-1;" parent="1" vertex="1">
          <mxGeometry x="2340" y="-510" width="120" height="60" as="geometry" />
        </mxCell>
        <mxCell id="tzjIKLnI3NLbFgxXQfzE-54" value="DisplayMemoryLocation" style="rounded=1;whiteSpace=wrap;html=1;arcSize=0;fontSize=12;fontFamily=Verdana;spacingTop=-1;" parent="1" vertex="1">
          <mxGeometry x="2180" y="-380" width="160" height="60" as="geometry" />
        </mxCell>
        <mxCell id="tzjIKLnI3NLbFgxXQfzE-56" value="DisplaySourceCodeLine" style="rounded=1;whiteSpace=wrap;html=1;arcSize=0;fontSize=12;fontFamily=Verdana;spacingTop=-1;" parent="1" vertex="1">
          <mxGeometry x="2350" y="-380" width="160" height="60" as="geometry" />
        </mxCell>
        <mxCell id="tzjIKLnI3NLbFgxXQfzE-61" value="ConvertToBinary" style="rounded=1;whiteSpace=wrap;html=1;arcSize=0;fontSize=12;fontFamily=Verdana;spacingTop=-1;" parent="1" vertex="1">
          <mxGeometry x="2060" y="-490" width="150" height="60" as="geometry" />
        </mxCell>
        <mxCell id="tzjIKLnI3NLbFgxXQfzE-65" style="edgeStyle=orthogonalEdgeStyle;rounded=0;orthogonalLoop=1;jettySize=auto;html=1;" parent="1" source="tzjIKLnI3NLbFgxXQfzE-63" edge="1">
          <mxGeometry relative="1" as="geometry">
            <mxPoint x="1920" y="-640" as="targetPoint" />
            <Array as="points">
              <mxPoint x="2540" y="-290" />
              <mxPoint x="1900" y="-290" />
              <mxPoint x="1900" y="-640" />
            </Array>
          </mxGeometry>
        </mxCell>
        <mxCell id="tzjIKLnI3NLbFgxXQfzE-63" value="ExecuteLDA" style="rounded=1;whiteSpace=wrap;html=1;arcSize=0;fontSize=12;fontFamily=Verdana;spacingTop=-1;" parent="1" vertex="1">
          <mxGeometry x="2480" y="-620" width="120" height="60" as="geometry" />
        </mxCell>
        <mxCell id="tzjIKLnI3NLbFgxXQfzE-66" value="ExecuteSTA" style="rounded=1;whiteSpace=wrap;html=1;arcSize=0;fontSize=12;fontFamily=Verdana;spacingTop=-1;" parent="1" vertex="1">
          <mxGeometry x="2640" y="-620" width="120" height="60" as="geometry" />
        </mxCell>
        <mxCell id="tzjIKLnI3NLbFgxXQfzE-71" style="edgeStyle=orthogonalEdgeStyle;rounded=0;orthogonalLoop=1;jettySize=auto;html=1;" parent="1" source="tzjIKLnI3NLbFgxXQfzE-68" edge="1">
          <mxGeometry relative="1" as="geometry">
            <mxPoint x="1920" y="-660" as="targetPoint" />
            <Array as="points">
              <mxPoint x="2860" y="-240" />
              <mxPoint x="1880" y="-240" />
              <mxPoint x="1880" y="-660" />
            </Array>
          </mxGeometry>
        </mxCell>
        <mxCell id="tzjIKLnI3NLbFgxXQfzE-68" value="ExecuteLDAimm" style="rounded=1;whiteSpace=wrap;html=1;arcSize=0;fontSize=12;fontFamily=Verdana;spacingTop=-1;" parent="1" vertex="1">
          <mxGeometry x="2800" y="-620" width="120" height="60" as="geometry" />
        </mxCell>
        <mxCell id="tzjIKLnI3NLbFgxXQfzE-74" style="edgeStyle=orthogonalEdgeStyle;rounded=0;orthogonalLoop=1;jettySize=auto;html=1;" parent="1" source="tzjIKLnI3NLbFgxXQfzE-72" target="tzjIKLnI3NLbFgxXQfzE-44" edge="1">
          <mxGeometry relative="1" as="geometry">
            <mxPoint x="2000" y="-950" as="targetPoint" />
            <Array as="points">
              <mxPoint x="3020" y="-800" />
              <mxPoint x="1950" y="-800" />
            </Array>
          </mxGeometry>
        </mxCell>
        <mxCell id="lhGBUYHMl0y7ZSXnE7WN-2" style="edgeStyle=orthogonalEdgeStyle;rounded=0;orthogonalLoop=1;jettySize=auto;html=1;entryX=0.5;entryY=0;entryDx=0;entryDy=0;" edge="1" parent="1" source="tzjIKLnI3NLbFgxXQfzE-72" target="lhGBUYHMl0y7ZSXnE7WN-1">
          <mxGeometry relative="1" as="geometry">
            <Array as="points">
              <mxPoint x="3020" y="-540" />
              <mxPoint x="3020" y="-540" />
            </Array>
          </mxGeometry>
        </mxCell>
        <mxCell id="tzjIKLnI3NLbFgxXQfzE-72" value="ExecuteADD" style="rounded=1;whiteSpace=wrap;html=1;arcSize=0;fontSize=12;fontFamily=Verdana;spacingTop=-1;" parent="1" vertex="1">
          <mxGeometry x="2960" y="-620" width="120" height="60" as="geometry" />
        </mxCell>
        <mxCell id="lhGBUYHMl0y7ZSXnE7WN-1" value="ReportRunTimeError" style="rounded=1;whiteSpace=wrap;html=1;arcSize=0;fontSize=12;fontFamily=Verdana;spacingTop=-1;" vertex="1" parent="1">
          <mxGeometry x="2945" y="-530" width="150" height="60" as="geometry" />
        </mxCell>
        <mxCell id="lhGBUYHMl0y7ZSXnE7WN-3" value="ExecuteJMP" style="rounded=1;whiteSpace=wrap;html=1;arcSize=0;fontSize=12;fontFamily=Verdana;spacingTop=-1;" vertex="1" parent="1">
          <mxGeometry x="3120" y="-620" width="120" height="60" as="geometry" />
        </mxCell>
        <mxCell id="lhGBUYHMl0y7ZSXnE7WN-9" style="edgeStyle=orthogonalEdgeStyle;rounded=0;orthogonalLoop=1;jettySize=auto;html=1;" edge="1" parent="1" source="lhGBUYHMl0y7ZSXnE7WN-5" target="lhGBUYHMl0y7ZSXnE7WN-8">
          <mxGeometry relative="1" as="geometry">
            <Array as="points">
              <mxPoint x="3340" y="-550" />
              <mxPoint x="3340" y="-550" />
            </Array>
          </mxGeometry>
        </mxCell>
        <mxCell id="lhGBUYHMl0y7ZSXnE7WN-5" value="ExecuteJSR" style="rounded=1;whiteSpace=wrap;html=1;arcSize=0;fontSize=12;fontFamily=Verdana;spacingTop=-1;" vertex="1" parent="1">
          <mxGeometry x="3280" y="-620" width="120" height="60" as="geometry" />
        </mxCell>
        <mxCell id="lhGBUYHMl0y7ZSXnE7WN-8" value="DisplayStack" style="rounded=1;whiteSpace=wrap;html=1;arcSize=0;fontSize=12;fontFamily=Verdana;spacingTop=-1;" vertex="1" parent="1">
          <mxGeometry x="3280" y="-530" width="120" height="60" as="geometry" />
        </mxCell>
        <mxCell id="lhGBUYHMl0y7ZSXnE7WN-11" style="edgeStyle=orthogonalEdgeStyle;rounded=0;orthogonalLoop=1;jettySize=auto;html=1;" edge="1" parent="1" source="lhGBUYHMl0y7ZSXnE7WN-10" target="tzjIKLnI3NLbFgxXQfzE-44">
          <mxGeometry relative="1" as="geometry">
            <mxPoint x="2004.782608695652" y="-770" as="targetPoint" />
            <Array as="points">
              <mxPoint x="3520" y="-780" />
              <mxPoint x="2004" y="-780" />
            </Array>
          </mxGeometry>
        </mxCell>
        <mxCell id="lhGBUYHMl0y7ZSXnE7WN-10" value="ExecuteCMPimm" style="rounded=1;whiteSpace=wrap;html=1;arcSize=0;fontSize=12;fontFamily=Verdana;spacingTop=-1;" vertex="1" parent="1">
          <mxGeometry x="3440" y="-620" width="120" height="60" as="geometry" />
        </mxCell>
        <mxCell id="lhGBUYHMl0y7ZSXnE7WN-44" style="edgeStyle=orthogonalEdgeStyle;rounded=0;orthogonalLoop=1;jettySize=auto;html=1;entryX=0.5;entryY=0;entryDx=0;entryDy=0;" edge="1" parent="1" source="lhGBUYHMl0y7ZSXnE7WN-25" target="lhGBUYHMl0y7ZSXnE7WN-26">
          <mxGeometry relative="1" as="geometry">
            <mxPoint x="1670" y="290" as="targetPoint" />
            <Array as="points">
              <mxPoint x="1680" y="270" />
            </Array>
          </mxGeometry>
        </mxCell>
        <mxCell id="lhGBUYHMl0y7ZSXnE7WN-45" style="edgeStyle=orthogonalEdgeStyle;rounded=0;orthogonalLoop=1;jettySize=auto;html=1;entryX=0.5;entryY=0;entryDx=0;entryDy=0;" edge="1" parent="1" source="lhGBUYHMl0y7ZSXnE7WN-25" target="lhGBUYHMl0y7ZSXnE7WN-27">
          <mxGeometry relative="1" as="geometry">
            <mxPoint x="1830" y="290" as="targetPoint" />
          </mxGeometry>
        </mxCell>
        <mxCell id="lhGBUYHMl0y7ZSXnE7WN-46" style="edgeStyle=orthogonalEdgeStyle;rounded=0;orthogonalLoop=1;jettySize=auto;html=1;" edge="1" parent="1" source="lhGBUYHMl0y7ZSXnE7WN-25" target="lhGBUYHMl0y7ZSXnE7WN-28">
          <mxGeometry relative="1" as="geometry">
            <mxPoint x="1980" y="310" as="targetPoint" />
            <Array as="points">
              <mxPoint x="2030" y="310" />
            </Array>
          </mxGeometry>
        </mxCell>
        <mxCell id="lhGBUYHMl0y7ZSXnE7WN-47" style="edgeStyle=orthogonalEdgeStyle;rounded=0;orthogonalLoop=1;jettySize=auto;html=1;" edge="1" parent="1" source="lhGBUYHMl0y7ZSXnE7WN-25" target="lhGBUYHMl0y7ZSXnE7WN-30">
          <mxGeometry relative="1" as="geometry">
            <Array as="points">
              <mxPoint x="2570" y="340" />
              <mxPoint x="2190" y="340" />
            </Array>
          </mxGeometry>
        </mxCell>
        <mxCell id="lhGBUYHMl0y7ZSXnE7WN-48" style="edgeStyle=orthogonalEdgeStyle;rounded=0;orthogonalLoop=1;jettySize=auto;html=1;" edge="1" parent="1" source="lhGBUYHMl0y7ZSXnE7WN-25" target="lhGBUYHMl0y7ZSXnE7WN-31">
          <mxGeometry relative="1" as="geometry">
            <Array as="points">
              <mxPoint x="2580" y="370" />
              <mxPoint x="2330" y="370" />
            </Array>
          </mxGeometry>
        </mxCell>
        <mxCell id="lhGBUYHMl0y7ZSXnE7WN-49" style="edgeStyle=orthogonalEdgeStyle;rounded=0;orthogonalLoop=1;jettySize=auto;html=1;entryX=0.5;entryY=0;entryDx=0;entryDy=0;" edge="1" parent="1" source="lhGBUYHMl0y7ZSXnE7WN-25" target="lhGBUYHMl0y7ZSXnE7WN-32">
          <mxGeometry relative="1" as="geometry">
            <Array as="points">
              <mxPoint x="2590" y="390" />
              <mxPoint x="2470" y="390" />
            </Array>
          </mxGeometry>
        </mxCell>
        <mxCell id="lhGBUYHMl0y7ZSXnE7WN-50" style="edgeStyle=orthogonalEdgeStyle;rounded=0;orthogonalLoop=1;jettySize=auto;html=1;entryX=0.5;entryY=0;entryDx=0;entryDy=0;" edge="1" parent="1" source="lhGBUYHMl0y7ZSXnE7WN-25" target="lhGBUYHMl0y7ZSXnE7WN-33">
          <mxGeometry relative="1" as="geometry" />
        </mxCell>
        <mxCell id="lhGBUYHMl0y7ZSXnE7WN-51" style="edgeStyle=orthogonalEdgeStyle;rounded=0;orthogonalLoop=1;jettySize=auto;html=1;" edge="1" parent="1" source="lhGBUYHMl0y7ZSXnE7WN-25" target="lhGBUYHMl0y7ZSXnE7WN-34">
          <mxGeometry relative="1" as="geometry">
            <Array as="points">
              <mxPoint x="2630" y="400" />
              <mxPoint x="2750" y="400" />
            </Array>
          </mxGeometry>
        </mxCell>
        <mxCell id="lhGBUYHMl0y7ZSXnE7WN-52" style="edgeStyle=orthogonalEdgeStyle;rounded=0;orthogonalLoop=1;jettySize=auto;html=1;" edge="1" parent="1" source="lhGBUYHMl0y7ZSXnE7WN-25" target="lhGBUYHMl0y7ZSXnE7WN-35">
          <mxGeometry relative="1" as="geometry">
            <Array as="points">
              <mxPoint x="2640" y="380" />
              <mxPoint x="2890" y="380" />
            </Array>
          </mxGeometry>
        </mxCell>
        <mxCell id="lhGBUYHMl0y7ZSXnE7WN-53" style="edgeStyle=orthogonalEdgeStyle;rounded=0;orthogonalLoop=1;jettySize=auto;html=1;" edge="1" parent="1" source="lhGBUYHMl0y7ZSXnE7WN-25" target="lhGBUYHMl0y7ZSXnE7WN-36">
          <mxGeometry relative="1" as="geometry">
            <Array as="points">
              <mxPoint x="2650" y="360" />
              <mxPoint x="3030" y="360" />
            </Array>
          </mxGeometry>
        </mxCell>
        <mxCell id="lhGBUYHMl0y7ZSXnE7WN-54" style="edgeStyle=orthogonalEdgeStyle;rounded=0;orthogonalLoop=1;jettySize=auto;html=1;" edge="1" parent="1" source="lhGBUYHMl0y7ZSXnE7WN-25" target="lhGBUYHMl0y7ZSXnE7WN-37">
          <mxGeometry relative="1" as="geometry">
            <Array as="points">
              <mxPoint x="2660" y="340" />
              <mxPoint x="3170" y="340" />
            </Array>
          </mxGeometry>
        </mxCell>
        <mxCell id="lhGBUYHMl0y7ZSXnE7WN-55" style="edgeStyle=orthogonalEdgeStyle;rounded=0;orthogonalLoop=1;jettySize=auto;html=1;entryX=0.5;entryY=0;entryDx=0;entryDy=0;" edge="1" parent="1" source="lhGBUYHMl0y7ZSXnE7WN-25" target="lhGBUYHMl0y7ZSXnE7WN-38">
          <mxGeometry relative="1" as="geometry">
            <Array as="points">
              <mxPoint x="3310" y="310" />
            </Array>
          </mxGeometry>
        </mxCell>
        <mxCell id="lhGBUYHMl0y7ZSXnE7WN-56" style="edgeStyle=orthogonalEdgeStyle;rounded=0;orthogonalLoop=1;jettySize=auto;html=1;entryX=0.5;entryY=0;entryDx=0;entryDy=0;" edge="1" parent="1" source="lhGBUYHMl0y7ZSXnE7WN-25" target="lhGBUYHMl0y7ZSXnE7WN-39">
          <mxGeometry relative="1" as="geometry">
            <mxPoint x="3602.3529411764707" y="290" as="targetPoint" />
            <Array as="points">
              <mxPoint x="3450" y="290" />
            </Array>
          </mxGeometry>
        </mxCell>
        <mxCell id="lhGBUYHMl0y7ZSXnE7WN-58" style="edgeStyle=orthogonalEdgeStyle;rounded=0;orthogonalLoop=1;jettySize=auto;html=1;entryX=0.5;entryY=0;entryDx=0;entryDy=0;" edge="1" parent="1" source="lhGBUYHMl0y7ZSXnE7WN-25" target="lhGBUYHMl0y7ZSXnE7WN-40">
          <mxGeometry relative="1" as="geometry">
            <Array as="points">
              <mxPoint x="3590" y="270" />
            </Array>
          </mxGeometry>
        </mxCell>
        <mxCell id="lhGBUYHMl0y7ZSXnE7WN-25" value="Execute" style="rounded=1;whiteSpace=wrap;html=1;arcSize=0;fontSize=12;fontFamily=Verdana;" vertex="1" parent="1">
          <mxGeometry x="2550" y="260" width="120" height="60" as="geometry" />
        </mxCell>
        <mxCell id="lhGBUYHMl0y7ZSXnE7WN-43" style="edgeStyle=orthogonalEdgeStyle;rounded=0;orthogonalLoop=1;jettySize=auto;html=1;entryX=0.5;entryY=0;entryDx=0;entryDy=0;" edge="1" parent="1" source="lhGBUYHMl0y7ZSXnE7WN-26" target="lhGBUYHMl0y7ZSXnE7WN-42">
          <mxGeometry relative="1" as="geometry">
            <Array as="points">
              <mxPoint x="1730" y="640" />
              <mxPoint x="1800" y="640" />
            </Array>
          </mxGeometry>
        </mxCell>
        <mxCell id="lhGBUYHMl0y7ZSXnE7WN-26" value="SetFlags" style="rounded=1;whiteSpace=wrap;html=1;arcSize=0;fontSize=12;fontFamily=Verdana;" vertex="1" parent="1">
          <mxGeometry x="1620" y="520" width="120" height="60" as="geometry" />
        </mxCell>
        <mxCell id="lhGBUYHMl0y7ZSXnE7WN-27" value="DisplayFrameDelimiter" style="rounded=1;whiteSpace=wrap;html=1;arcSize=0;fontSize=12;fontFamily=Verdana;" vertex="1" parent="1">
          <mxGeometry x="1760" y="520" width="170" height="60" as="geometry" />
        </mxCell>
        <mxCell id="lhGBUYHMl0y7ZSXnE7WN-59" style="edgeStyle=orthogonalEdgeStyle;rounded=0;orthogonalLoop=1;jettySize=auto;html=1;entryX=0.5;entryY=0;entryDx=0;entryDy=0;" edge="1" parent="1" source="lhGBUYHMl0y7ZSXnE7WN-28" target="lhGBUYHMl0y7ZSXnE7WN-60">
          <mxGeometry relative="1" as="geometry">
            <mxPoint x="2030" y="710" as="targetPoint" />
            <Array as="points">
              <mxPoint x="2030" y="660" />
              <mxPoint x="1960" y="660" />
            </Array>
          </mxGeometry>
        </mxCell>
        <mxCell id="lhGBUYHMl0y7ZSXnE7WN-61" style="edgeStyle=orthogonalEdgeStyle;rounded=0;orthogonalLoop=1;jettySize=auto;html=1;entryX=0.5;entryY=0;entryDx=0;entryDy=0;" edge="1" parent="1" source="lhGBUYHMl0y7ZSXnE7WN-28" target="lhGBUYHMl0y7ZSXnE7WN-62">
          <mxGeometry relative="1" as="geometry">
            <mxPoint x="2070" y="660" as="targetPoint" />
            <Array as="points">
              <mxPoint x="2080" y="640" />
              <mxPoint x="2100" y="640" />
            </Array>
          </mxGeometry>
        </mxCell>
        <mxCell id="lhGBUYHMl0y7ZSXnE7WN-64" style="edgeStyle=orthogonalEdgeStyle;rounded=0;orthogonalLoop=1;jettySize=auto;html=1;entryX=0.5;entryY=1;entryDx=0;entryDy=0;" edge="1" parent="1" source="lhGBUYHMl0y7ZSXnE7WN-28" target="lhGBUYHMl0y7ZSXnE7WN-27">
          <mxGeometry relative="1" as="geometry">
            <Array as="points">
              <mxPoint x="2000" y="630" />
              <mxPoint x="1845" y="630" />
            </Array>
          </mxGeometry>
        </mxCell>
        <mxCell id="lhGBUYHMl0y7ZSXnE7WN-28" value="DisplayCurrentState" style="rounded=1;whiteSpace=wrap;html=1;arcSize=0;fontSize=12;fontFamily=Verdana;" vertex="1" parent="1">
          <mxGeometry x="1950" y="520" width="160" height="60" as="geometry" />
        </mxCell>
        <mxCell id="lhGBUYHMl0y7ZSXnE7WN-72" style="edgeStyle=orthogonalEdgeStyle;rounded=0;orthogonalLoop=1;jettySize=auto;html=1;" edge="1" parent="1" source="lhGBUYHMl0y7ZSXnE7WN-30">
          <mxGeometry relative="1" as="geometry">
            <mxPoint x="1700" y="580" as="targetPoint" />
            <Array as="points">
              <mxPoint x="2190" y="950" />
              <mxPoint x="1700" y="950" />
            </Array>
          </mxGeometry>
        </mxCell>
        <mxCell id="lhGBUYHMl0y7ZSXnE7WN-30" value="ExecuteLDA" style="rounded=1;whiteSpace=wrap;html=1;arcSize=0;fontSize=12;fontFamily=Verdana;" vertex="1" parent="1">
          <mxGeometry x="2130" y="520" width="120" height="60" as="geometry" />
        </mxCell>
        <mxCell id="lhGBUYHMl0y7ZSXnE7WN-31" value="ExecuteSTA" style="rounded=1;whiteSpace=wrap;html=1;arcSize=0;fontSize=12;fontFamily=Verdana;" vertex="1" parent="1">
          <mxGeometry x="2270" y="520" width="120" height="60" as="geometry" />
        </mxCell>
        <mxCell id="lhGBUYHMl0y7ZSXnE7WN-73" style="edgeStyle=orthogonalEdgeStyle;rounded=0;orthogonalLoop=1;jettySize=auto;html=1;" edge="1" parent="1" source="lhGBUYHMl0y7ZSXnE7WN-32">
          <mxGeometry relative="1" as="geometry">
            <mxPoint x="1680" y="580" as="targetPoint" />
            <Array as="points">
              <mxPoint x="2470" y="970" />
              <mxPoint x="1680" y="970" />
            </Array>
          </mxGeometry>
        </mxCell>
        <mxCell id="lhGBUYHMl0y7ZSXnE7WN-32" value="ExecuteLDAimm" style="rounded=1;whiteSpace=wrap;html=1;arcSize=0;fontSize=12;fontFamily=Verdana;" vertex="1" parent="1">
          <mxGeometry x="2410" y="520" width="120" height="60" as="geometry" />
        </mxCell>
        <mxCell id="lhGBUYHMl0y7ZSXnE7WN-75" style="edgeStyle=orthogonalEdgeStyle;rounded=0;orthogonalLoop=1;jettySize=auto;html=1;entryX=0.5;entryY=0;entryDx=0;entryDy=0;" edge="1" parent="1" source="lhGBUYHMl0y7ZSXnE7WN-33" target="lhGBUYHMl0y7ZSXnE7WN-74">
          <mxGeometry relative="1" as="geometry">
            <Array as="points">
              <mxPoint x="2660" y="670" />
              <mxPoint x="2660" y="670" />
            </Array>
          </mxGeometry>
        </mxCell>
        <mxCell id="lhGBUYHMl0y7ZSXnE7WN-77" style="edgeStyle=orthogonalEdgeStyle;rounded=0;orthogonalLoop=1;jettySize=auto;html=1;" edge="1" parent="1" source="lhGBUYHMl0y7ZSXnE7WN-33" target="lhGBUYHMl0y7ZSXnE7WN-26">
          <mxGeometry relative="1" as="geometry">
            <mxPoint x="2570" y="582" as="sourcePoint" />
            <Array as="points">
              <mxPoint x="2560" y="990" />
              <mxPoint x="1663" y="990" />
            </Array>
          </mxGeometry>
        </mxCell>
        <mxCell id="lhGBUYHMl0y7ZSXnE7WN-80" style="edgeStyle=orthogonalEdgeStyle;rounded=0;orthogonalLoop=1;jettySize=auto;html=1;entryX=0.5;entryY=1;entryDx=0;entryDy=0;exitX=0.5;exitY=1;exitDx=0;exitDy=0;" edge="1" parent="1" source="lhGBUYHMl0y7ZSXnE7WN-33" target="lhGBUYHMl0y7ZSXnE7WN-42">
          <mxGeometry relative="1" as="geometry">
            <mxPoint x="2580" y="1020" as="targetPoint" />
            <Array as="points">
              <mxPoint x="2610" y="650" />
              <mxPoint x="2580" y="650" />
              <mxPoint x="2580" y="1010" />
              <mxPoint x="1760" y="1010" />
              <mxPoint x="1760" y="760" />
            </Array>
          </mxGeometry>
        </mxCell>
        <mxCell id="lhGBUYHMl0y7ZSXnE7WN-33" value="ExecuteADD" style="rounded=1;whiteSpace=wrap;html=1;arcSize=0;fontSize=12;fontFamily=Verdana;" vertex="1" parent="1">
          <mxGeometry x="2550" y="520" width="120" height="60" as="geometry" />
        </mxCell>
        <mxCell id="lhGBUYHMl0y7ZSXnE7WN-34" value="ExecuteJMP" style="rounded=1;whiteSpace=wrap;html=1;arcSize=0;fontSize=12;fontFamily=Verdana;" vertex="1" parent="1">
          <mxGeometry x="2690" y="520" width="120" height="60" as="geometry" />
        </mxCell>
        <mxCell id="lhGBUYHMl0y7ZSXnE7WN-82" style="edgeStyle=orthogonalEdgeStyle;rounded=0;orthogonalLoop=1;jettySize=auto;html=1;entryX=0.5;entryY=0;entryDx=0;entryDy=0;" edge="1" parent="1" source="lhGBUYHMl0y7ZSXnE7WN-35" target="lhGBUYHMl0y7ZSXnE7WN-81">
          <mxGeometry relative="1" as="geometry" />
        </mxCell>
        <mxCell id="lhGBUYHMl0y7ZSXnE7WN-35" value="ExecuteJSR" style="rounded=1;whiteSpace=wrap;html=1;arcSize=0;fontSize=12;fontFamily=Verdana;" vertex="1" parent="1">
          <mxGeometry x="2830" y="520" width="120" height="60" as="geometry" />
        </mxCell>
        <mxCell id="lhGBUYHMl0y7ZSXnE7WN-83" style="edgeStyle=orthogonalEdgeStyle;rounded=0;orthogonalLoop=1;jettySize=auto;html=1;" edge="1" parent="1" source="lhGBUYHMl0y7ZSXnE7WN-36">
          <mxGeometry relative="1" as="geometry">
            <mxPoint x="1640" y="580" as="targetPoint" />
            <Array as="points">
              <mxPoint x="3030" y="1030" />
              <mxPoint x="1640" y="1030" />
              <mxPoint x="1640" y="580" />
            </Array>
          </mxGeometry>
        </mxCell>
        <mxCell id="lhGBUYHMl0y7ZSXnE7WN-36" value="ExecuteCMPimm" style="rounded=1;whiteSpace=wrap;html=1;arcSize=0;fontSize=12;fontFamily=Verdana;" vertex="1" parent="1">
          <mxGeometry x="2970" y="520" width="120" height="60" as="geometry" />
        </mxCell>
        <mxCell id="lhGBUYHMl0y7ZSXnE7WN-85" style="edgeStyle=orthogonalEdgeStyle;rounded=0;orthogonalLoop=1;jettySize=auto;html=1;entryX=0.5;entryY=1;entryDx=0;entryDy=0;" edge="1" parent="1" source="lhGBUYHMl0y7ZSXnE7WN-37" target="lhGBUYHMl0y7ZSXnE7WN-62">
          <mxGeometry relative="1" as="geometry">
            <mxPoint x="3170" y="820" as="targetPoint" />
            <Array as="points">
              <mxPoint x="3170" y="810" />
              <mxPoint x="2100" y="810" />
            </Array>
          </mxGeometry>
        </mxCell>
        <mxCell id="lhGBUYHMl0y7ZSXnE7WN-37" value="ExecuteBEQ" style="rounded=1;whiteSpace=wrap;html=1;arcSize=0;fontSize=12;fontFamily=Verdana;" vertex="1" parent="1">
          <mxGeometry x="3110" y="520" width="120" height="60" as="geometry" />
        </mxCell>
        <mxCell id="lhGBUYHMl0y7ZSXnE7WN-38" value="ExecuteSUB" style="rounded=1;whiteSpace=wrap;html=1;arcSize=0;fontSize=12;fontFamily=Verdana;" vertex="1" parent="1">
          <mxGeometry x="3250" y="520" width="120" height="60" as="geometry" />
        </mxCell>
        <mxCell id="lhGBUYHMl0y7ZSXnE7WN-39" value="ExecuteSKP" style="rounded=1;whiteSpace=wrap;html=1;arcSize=0;fontSize=12;fontFamily=Verdana;" vertex="1" parent="1">
          <mxGeometry x="3390" y="520" width="120" height="60" as="geometry" />
        </mxCell>
        <mxCell id="lhGBUYHMl0y7ZSXnE7WN-40" value="ExecuteRTN" style="rounded=1;whiteSpace=wrap;html=1;arcSize=0;fontSize=12;fontFamily=Verdana;" vertex="1" parent="1">
          <mxGeometry x="3530" y="520" width="120" height="60" as="geometry" />
        </mxCell>
        <mxCell id="lhGBUYHMl0y7ZSXnE7WN-42" value="ConvertToDecimal" style="rounded=1;whiteSpace=wrap;html=1;arcSize=0;fontSize=12;fontFamily=Verdana;" vertex="1" parent="1">
          <mxGeometry x="1740" y="700" width="120" height="60" as="geometry" />
        </mxCell>
        <mxCell id="lhGBUYHMl0y7ZSXnE7WN-68" style="edgeStyle=orthogonalEdgeStyle;rounded=0;orthogonalLoop=1;jettySize=auto;html=1;" edge="1" parent="1" source="lhGBUYHMl0y7ZSXnE7WN-60" target="lhGBUYHMl0y7ZSXnE7WN-66">
          <mxGeometry relative="1" as="geometry">
            <Array as="points">
              <mxPoint x="1940" y="805" />
              <mxPoint x="1870" y="805" />
            </Array>
          </mxGeometry>
        </mxCell>
        <mxCell id="lhGBUYHMl0y7ZSXnE7WN-70" style="edgeStyle=orthogonalEdgeStyle;rounded=0;orthogonalLoop=1;jettySize=auto;html=1;" edge="1" parent="1" source="lhGBUYHMl0y7ZSXnE7WN-60" target="lhGBUYHMl0y7ZSXnE7WN-67">
          <mxGeometry relative="1" as="geometry">
            <Array as="points">
              <mxPoint x="1980" y="805" />
              <mxPoint x="2050" y="805" />
            </Array>
          </mxGeometry>
        </mxCell>
        <mxCell id="lhGBUYHMl0y7ZSXnE7WN-60" value="DisplayCode" style="rounded=1;whiteSpace=wrap;html=1;arcSize=0;fontSize=12;fontFamily=Verdana;" vertex="1" parent="1">
          <mxGeometry x="1900" y="700" width="120" height="60" as="geometry" />
        </mxCell>
        <mxCell id="lhGBUYHMl0y7ZSXnE7WN-62" value="ConvertToBinary" style="rounded=1;whiteSpace=wrap;html=1;arcSize=0;fontSize=12;fontFamily=Verdana;" vertex="1" parent="1">
          <mxGeometry x="2040" y="700" width="120" height="60" as="geometry" />
        </mxCell>
        <mxCell id="lhGBUYHMl0y7ZSXnE7WN-66" value="DisplayMemoryLocation" style="rounded=1;whiteSpace=wrap;html=1;arcSize=0;fontSize=12;fontFamily=Verdana;" vertex="1" parent="1">
          <mxGeometry x="1790" y="850" width="160" height="60" as="geometry" />
        </mxCell>
        <mxCell id="lhGBUYHMl0y7ZSXnE7WN-67" value="DisplaySourceCodeLine" style="rounded=1;whiteSpace=wrap;html=1;arcSize=0;fontSize=12;fontFamily=Verdana;" vertex="1" parent="1">
          <mxGeometry x="1970" y="850" width="160" height="60" as="geometry" />
        </mxCell>
        <mxCell id="lhGBUYHMl0y7ZSXnE7WN-74" value="ReportRunTimeError" style="rounded=1;whiteSpace=wrap;html=1;arcSize=0;fontSize=12;fontFamily=Verdana;" vertex="1" parent="1">
          <mxGeometry x="2590" y="700" width="140" height="60" as="geometry" />
        </mxCell>
        <mxCell id="lhGBUYHMl0y7ZSXnE7WN-81" value="DisplayStack" style="rounded=1;whiteSpace=wrap;html=1;arcSize=0;fontSize=12;fontFamily=Verdana;" vertex="1" parent="1">
          <mxGeometry x="2830" y="700" width="120" height="60" as="geometry" />
        </mxCell>
      </root>
    </mxGraphModel>
  </diagram>
</mxfile>
